<svg width="141" height="23" viewBox="0 0 141 23" fill="none" xmlns="http://www.w3.org/2000/svg">
<path d="M3.42082 22.4188L0.789062 0.0532227H4.54047L6.11029 17.3734H6.32961L14.1556 0.0532227H17.8724L19.6269 17.3843H19.8578L27.476 0.0532227H31.239L20.7466 22.4188H17.1567L15.1368 5.66645H14.9521L7.02217 22.4188H3.42082Z" fill="black"/>
<path d="M33.6572 22.7901C32.5337 22.7901 31.5525 22.5935 30.7138 22.2003C29.875 21.7999 29.2555 21.2211 28.8554 20.464C28.4552 19.7068 28.3513 18.7785 28.5437 17.6792C28.713 16.7327 29.0439 15.9537 29.5364 15.3422C30.0366 14.7306 30.6445 14.2465 31.3602 13.8897C32.0758 13.5257 32.853 13.2527 33.6918 13.0707C34.5306 12.8887 35.3771 12.754 36.2312 12.6666C37.3085 12.5501 38.182 12.4518 38.8514 12.3717C39.5286 12.2917 40.0365 12.1679 40.3751 12.0004C40.7137 11.8257 40.9176 11.5418 40.9869 11.1486V11.0722C41.1485 10.1257 41.0022 9.3904 40.5482 8.86621C40.1019 8.33473 39.3247 8.069 38.2166 8.069C37.0623 8.069 36.0927 8.30925 35.3078 8.78976C34.5306 9.27027 33.9573 9.80902 33.5879 10.406L30.4945 9.7071C31.0485 8.68783 31.7526 7.86514 32.6068 7.23903C33.4686 6.60563 34.4113 6.14696 35.4348 5.86302C36.4582 5.5718 37.5048 5.42619 38.5744 5.42619C39.2824 5.42619 40.0173 5.50628 40.7791 5.66645C41.5409 5.81934 42.2335 6.10328 42.8568 6.51826C43.4878 6.93325 43.9572 7.5266 44.265 8.29833C44.5728 9.06278 44.619 10.0566 44.4035 11.2797L42.4528 22.4188H39.0823L39.4978 20.1254H39.3593C39.0669 20.5477 38.6591 20.9627 38.1358 21.3704C37.6202 21.7781 36.9892 22.1166 36.2428 22.386C35.4963 22.6554 34.6345 22.7901 33.6572 22.7901ZM34.8345 20.1691C35.7964 20.1691 36.6468 19.9907 37.3855 19.634C38.1319 19.2772 38.736 18.8113 39.1977 18.2361C39.6594 17.6537 39.948 17.0312 40.0634 16.3687L40.4443 14.2064C40.2981 14.3229 40.0403 14.4285 39.671 14.5231C39.3093 14.6178 38.9015 14.7015 38.4474 14.7743C37.9934 14.8471 37.5471 14.909 37.1085 14.9599C36.6775 15.0109 36.3197 15.0582 36.035 15.1019C35.3578 15.182 34.723 15.3167 34.1304 15.506C33.5456 15.6953 33.0569 15.9683 32.6645 16.325C32.272 16.6745 32.0258 17.1404 31.9258 17.7229C31.7872 18.531 31.9912 19.1426 32.5375 19.5575C33.0916 19.9653 33.8573 20.1691 34.8345 20.1691Z" fill="black"/>
<path d="M54.4256 0.0532227L50.501 22.4188H47.0497L50.9743 0.0532227H54.4256Z" fill="black"/>
<path d="M62.5199 0.0532227L58.5954 22.4188H55.1441L59.0686 0.0532227H62.5199Z" fill="black"/>
<path d="M70.8336 22.7573C69.0945 22.7573 67.6555 22.4042 66.5166 21.698C65.3854 20.9845 64.5928 19.9835 64.1388 18.6948C63.6848 17.3989 63.6117 15.8809 63.9195 14.1409C64.2196 12.4227 64.8237 10.9084 65.7317 9.59789C66.6398 8.28741 67.771 7.26451 69.1253 6.52918C70.4874 5.79386 71.9918 5.42619 73.6385 5.42619C74.6389 5.42619 75.5816 5.58272 76.4665 5.89578C77.3592 6.20884 78.1171 6.70027 78.7405 7.37007C79.3638 8.03988 79.7947 8.90989 80.0332 9.98011C80.2795 11.0431 80.2718 12.3353 80.0102 13.857L79.8139 15.0145H65.7086L66.1126 12.5683H76.8243C76.986 11.7092 76.9436 10.9484 76.6974 10.2859C76.4511 9.61609 76.0279 9.08826 75.4277 8.7024C74.8351 8.31653 74.0887 8.1236 73.1884 8.1236C72.2649 8.1236 71.4031 8.35293 70.6028 8.8116C69.8025 9.27027 69.133 9.85635 68.5943 10.5698C68.0634 11.276 67.7286 12.0041 67.5901 12.754L67.1861 14.9927C66.986 16.2158 67.0207 17.1987 67.29 17.9413C67.567 18.6839 68.0518 19.2226 68.7444 19.5575C69.437 19.8924 70.3027 20.0599 71.3415 20.0599C72.011 20.0599 72.6305 19.9725 73.1999 19.7978C73.7771 19.6158 74.2888 19.3501 74.7351 19.0006C75.1814 18.6438 75.5546 18.1997 75.8548 17.6683L79.0175 18.2252C78.5943 19.1353 77.9863 19.9325 77.1937 20.6168C76.4011 21.2939 75.4661 21.8218 74.3888 22.2003C73.3192 22.5717 72.1341 22.7573 70.8336 22.7573Z" fill="black"/>
<path d="M93.6105 5.64461L93.1603 8.26557H83.4759L83.9261 5.64461H93.6105ZM87.2158 1.6258H90.667L87.8737 17.4935C87.766 18.1269 87.7852 18.6038 87.9314 18.9241C88.0776 19.2372 88.3008 19.452 88.6009 19.5685C88.9087 19.6777 89.2511 19.7323 89.6282 19.7323C89.9052 19.7323 90.1476 19.7141 90.3554 19.6777C90.5632 19.6413 90.7286 19.6121 90.8517 19.5903L91.0364 22.2877C90.8056 22.3605 90.4939 22.4333 90.1015 22.5061C89.7167 22.5862 89.2473 22.6299 88.6932 22.6372C87.7852 22.6517 86.9657 22.4988 86.2346 22.1785C85.5036 21.8509 84.9572 21.3558 84.5955 20.6933C84.2339 20.0235 84.1454 19.1826 84.3301 18.1706L87.2158 1.6258Z" fill="black"/>
<path d="M99.0558 0.0532227H103.384L107.886 17.4389H108.163L118.713 0.0532227H123.042L119.117 22.4188H115.724L118.575 6.23432H118.355L108.544 22.386H105.716L101.607 6.2234H101.387L98.5248 22.4188H95.1312L99.0558 0.0532227Z" fill="black"/>
<path d="M131.621 22.7573C129.882 22.7573 128.443 22.4042 127.304 21.698C126.173 20.9845 125.38 19.9835 124.926 18.6948C124.472 17.3989 124.399 15.8809 124.707 14.1409C125.007 12.4227 125.611 10.9084 126.519 9.59789C127.427 8.28741 128.558 7.26451 129.913 6.52918C131.275 5.79386 132.779 5.42619 134.426 5.42619C135.426 5.42619 136.369 5.58272 137.254 5.89578C138.146 6.20884 138.904 6.70027 139.528 7.37007C140.151 8.03988 140.582 8.90989 140.82 9.98011C141.067 11.0431 141.059 12.3353 140.797 13.857L140.601 15.0145H126.496L126.9 12.5683H137.612C137.773 11.7092 137.731 10.9484 137.485 10.2859C137.238 9.61609 136.815 9.08826 136.215 8.7024C135.622 8.31653 134.876 8.1236 133.976 8.1236C133.052 8.1236 132.19 8.35293 131.39 8.8116C130.59 9.27027 129.92 9.85635 129.382 10.5698C128.851 11.276 128.516 12.0041 128.377 12.754L127.973 14.9927C127.773 16.2158 127.808 17.1987 128.077 17.9413C128.354 18.6839 128.839 19.2226 129.532 19.5575C130.224 19.8924 131.09 20.0599 132.129 20.0599C132.798 20.0599 133.418 19.9725 133.987 19.7978C134.564 19.6158 135.076 19.3501 135.522 19.0006C135.969 18.6438 136.342 18.1997 136.642 17.6683L139.805 18.2252C139.382 19.1353 138.774 19.9325 137.981 20.6168C137.188 21.2939 136.253 21.8218 135.176 22.2003C134.106 22.5717 132.921 22.7573 131.621 22.7573Z" fill="black"/>
</svg>
